<svg version="1.1" xmlns="http://www.w3.org/2000/svg" xmlns:xlink="http://www.w3.org/1999/xlink" width="156.20714" height="311.23169" viewBox="0,0,156.20714,311.23169"><g transform="translate(-115.52248,-80.4832)"><g data-paper-data="{&quot;isPaintingLayer&quot;:true}" fill-rule="nonzero" stroke-linejoin="miter" stroke-miterlimit="10" stroke-dasharray="" stroke-dashoffset="0" style="mix-blend-mode: normal"><path d="M167.00061,319.77411c-4.37096,24.1154 -10.61529,46.85348 -18.19231,54.93502c-4.61436,4.9216 -10.27117,0.17118 -14.712,-0.74153c-4.58824,-0.94301 -13.88336,-4.82866 -16.07382,-11.54276c-3.41092,-10.45499 2.20691,-27.75541 6.48952,-51.38332c3.55765,-19.62817 10.09076,-50.39975 16.32545,-62.34069c6.09022,-11.66425 11.85527,-4.74098 17.65296,-3.54939c4.62297,0.95015 14.21952,-1.5461 16.20384,7.46261c3.05181,13.85504 -3.43186,43.647 -7.69365,67.16005z" fill="#af5400" stroke="#000000" stroke-width="5" stroke-linecap="butt"/><path d="M256.97817,376.49771l-12.05866,-84.00106l14.46324,-32.62681l-22.3237,9.73935l18.55068,-18.50476l-16.97859,-26.29624l-54.70878,-4.86967l-23.89579,22.4005l-11.07026,135.63295z" fill="#ff7b00" stroke="#000000" stroke-width="5" stroke-linecap="round"/><path d="M140.46675,230.8257l-10.85674,-95.21747l10.85674,-8.21501h128.76288v103.43248l-9.31619,8.48182z" fill="#9d9d9d" stroke="#000000" stroke-width="5" stroke-linecap="butt"/><path d="M129.52091,239.89698v-103.43248h128.76288v103.43248z" fill="#c7c7c7" stroke="#000000" stroke-width="5" stroke-linecap="butt"/><path d="M258.89562,135.60823l10.1782,-6.10691" fill="none" stroke="#000000" stroke-width="5" stroke-linecap="round"/><path d="M162.88134,135.57053l-23.07057,-52.58733" fill="none" stroke="#000000" stroke-width="5" stroke-linecap="round"/><path d="M228.02177,134.55272l27.14184,-47.83751" fill="none" stroke="#000000" stroke-width="5" stroke-linecap="round"/><path d="M137.09658,233.31889v-90.24664h113.31722v90.24665z" fill="#232323" stroke="#000000" stroke-width="5" stroke-linecap="butt"/><g stroke="#000000" stroke-width="5" stroke-linecap="butt"><path d="M240.6116,190.55434c0,8.62737 -10.39502,29.15224 -21.03511,35.21567c-0.84358,0.48073 -27.36185,5.91228 -40.26703,5.91228c-15.20301,0 -18.36891,-1.05068 -27.36434,-8.18176c-7.03042,-5.57333 -9.41695,-25.14371 -9.41695,-32.94619c0,-17.78576 19.50463,-27.15996 46.58962,-27.15996c27.08499,0 51.4938,9.3742 51.4938,27.15997z" fill="#ffd888"/><path d="M225.89909,199.86633c0,3.30354 11.53256,-15.77994 -2.38397,-10.78791c-10.0495,3.60487 -18.47695,2.15929 -28.25621,3.76971c-18.84305,3.103 -27.06845,-2.29378 -39.55078,-2.29378c-27.93139,0 -9.50183,-5.62224 -9.50183,-15.90798c0,-0.88315 14.29806,-27.39139 14.67878,-28.29931c2.3747,-5.66314 -0.97275,13.8494 7.58262,17.16347c3.13588,1.21473 3.4258,-14.79525 9.76501,-18.16399c2.60074,-1.38207 5.14214,10.18421 8.97669,11.83186c4.84382,2.08131 18.377,2.33599 21.21858,2.33599c4.65873,0 7.51796,-4.8978 11.09143,-3.95988c3.43356,0.9012 11.34417,2.37608 13.96077,4.23161c9.50666,6.74155 13.8739,9.19568 13.88699,16.72802c0.00106,0.60796 -5.15194,22.12726 -10.70773,27.89633c-5.16449,5.36274 -10.76033,-4.99348 -10.76033,-4.54413z" fill="#000000"/></g><g fill="#fe7b01" stroke-linecap="butt"><path d="M263.79759,327.52229c2.65351,24.36425 3.11978,47.93955 -1.85183,57.83933c-3.02768,6.0289 -9.80017,3.07943 -14.31743,3.4647c-4.6672,0.39806 -14.68292,-0.68954 -18.68897,-6.5058c-6.2381,-9.0569 -5.76171,-27.24033 -8.36158,-51.11206c-2.15976,-19.83072 -4.62927,-51.19109 -2.04021,-64.41056c2.52907,-12.91315 10.02207,-7.9109 15.91954,-8.41389c4.70253,-0.40107 13.1959,-5.51848 17.65557,2.55654c6.8588,12.41904 9.09768,42.82605 11.68491,66.58174z" stroke="#000000" stroke-width="5"/><path d="M241.62631,264.76861l-0.02291,0.05556h0.02353v2.56742c0,1.38071 -1.11929,2.5 -2.5,2.5c-1.1246,0 -2.07576,-0.74256 -2.38994,-1.76412l-1.00874,-3.02622l0.06119,-0.0204c-0.05623,-0.12111 -0.10876,-0.24427 -0.1572,-0.36972c-0.1743,-0.45135 -0.25015,-0.92146 -0.27001,-1.40221l-0.4999,1.66633c-0.29105,1.05813 -1.2601,1.83543 -2.4107,1.83543c-1.38071,0 -2.5,-1.11929 -2.5,-2.5v-2.70694c-0.1964,0.16512 -0.41857,0.30058 -0.65961,0.39946c-0.04313,0.69114 -0.34078,1.58311 -1.48044,2.03503c-0.6925,1.43464 -2.38055,2.05955 -5.79344,0.93019c-1.48631,-0.49183 -1.55046,-2.79592 -1.78683,-4.34354c-0.29378,-1.92344 -0.69131,-4.1202 0.23259,-5.83261c0.30016,-0.55634 1.05236,-0.21203 1.78546,0.09424c0,-0.20181 0,-0.33205 0,-0.33205c0,-1.38071 1.11929,-2.5 2.5,-2.5c0.69036,0 1.31536,0.27982 1.76777,0.73223l0.92512,0.92512c-0.10667,-3.3946 1.88543,-6.24717 6.24102,-4.08425c0.33912,-0.97846 1.2689,-1.68098 2.36275,-1.68098c0.12121,0 0.24041,0.00863 0.35701,0.0253c0.26365,-0.07205 0.53867,-0.08439 0.82531,-0.02047c0.13021,0.02904 0.25642,0.06587 0.37883,0.10991c1.93863,-2.15836 4.48101,-2.34643 7.22818,-0.04863c0.68051,0.15975 1.25389,0.59753 1.59374,1.18694l1.51688,2.52813l-0.08365,0.05019l0.2112,0.19141c0.29505,0.87278 0.51322,1.76607 0.67454,2.67268c0.10883,0.2433 0.21386,0.48029 0.31458,0.70839l0.13827,-0.04609l1.522,4.566c0.09499,0.2642 0.14675,0.54902 0.14675,0.84593c0,1.38071 -1.11929,2.5 -2.5,2.5c-1.1246,0 -2.07576,-0.74256 -2.38994,-1.76412l-0.21411,-0.64233l-0.07026,0.35132c-0.20987,1.16847 -1.23166,2.05512 -2.46053,2.05512c-0.65155,0 -1.24488,-0.24925 -1.68985,-0.65759c0.03493,0.90495 0.05753,1.68375 0.08136,2.20991z" stroke="none" stroke-width="0.5"/></g><path d="M175.96832,187.74442v18.48545" fill="none" stroke="#000000" stroke-width="5" stroke-linecap="round"/><path d="M189.8324,188.77139l-0.51348,17.97196" fill="none" stroke="#000000" stroke-width="5" stroke-linecap="round"/><path d="M167.23908,219.06698c0,0 9.20071,4.10788 13.86408,4.10788c4.74895,0 14.37757,-4.10788 14.37757,-4.10788" fill="none" stroke="#000000" stroke-width="5" stroke-linecap="round"/></g></g></svg>